{"title":"Los Ultimos Dias 2013 720p BluRay x264 SIMON","uid":8777380,"size":737506900,"categoryP":"video","categoryS":"hd___movies","magnet":"?xt=urn:btih:52c6e83219b831551e56d9d3cdf11d8edebda10f&amp;dn=Los+Ultimos+Dias+2013+720p+BluRay+x264+SIMON&amp;tr=udp%3A%2F%2Ftracker.openbittorrent.com%3A80&amp;tr=udp%3A%2F%2Fopen.demonii.com%3A1337&amp;tr=udp%3A%2F%2Ftracker.coppersurfer.tk%3A6969&amp;tr=udp%3A%2F%2Fexodus.desync.com%3A6969","seeders":0,"leechers":5,"uploader":"genije72","files":-1,"time":1375590920,"description":" &lt;a href=&quot;http://i.imgur.com/riknhkF.jpg&quot; rel=&quot;nofollow&quot; target=&quot;_NEW&quot;&gt;http://i.imgur.com/riknhkF.jpg&lt;/a&gt; &lt;a href=&quot;\nhttp://i.imgur.com/kWG6zDn.jpg&quot; rel=&quot;nofollow&quot; target=&quot;_NEW&quot;&gt;\nhttp://i.imgur.com/kWG6zDn.jpg&lt;/a&gt; &lt;a href=&quot;\nhttp://i.imgur.com/fma8mzF.jpg&quot; rel=&quot;nofollow&quot; target=&quot;_NEW&quot;&gt;\nhttp://i.imgur.com/fma8mzF.jpg&lt;/a&gt; &lt;a href=&quot;\nhttp://i.imgur.com/YKOKY52.jpg&quot; rel=&quot;nofollow&quot; target=&quot;_NEW&quot;&gt;\nhttp://i.imgur.com/YKOKY52.jpg&lt;/a&gt;\n\n\nGeneral\nComplete name                            : Los Ultimos Dias 2013 720p BluRay x264 SIMON\nFormat                                   : MPEG-4\nFormat profile                           : Base Media / Version 2\nCodec ID                                 : mp42\nFile size                                : 699 MiB\nDuration                                 : 1h 42mn\nOverall bit rate mode                    : Variable\nOverall bit rate                         : 952 Kbps\nEncoded date                             : UTC 2013-08-03 23:47:34\nTagged date                              : UTC 2013-08-04 00:51:29\nWriting application                      : HandBrake 0.9.9 2013051800\n\nVideo\nID                                       : 1\nFormat                                   : AVC\nFormat/Info                              : Advanced Video Codec\nFormat profile                           : &lt;a class=&quot;__cf_email__&quot; href=&quot;/cdn-cgi/l/email-protection&quot; data-cfemail=&quot;357d5c525d7579011b04&quot;&gt;[email&amp;#160;protected]&lt;/a&gt;&lt;script cf-hash='f9e31' type=&quot;text/javascript&quot;&gt;\n/* &lt;![CDATA[ */!function(){try{var t=&quot;currentScript&quot;in document?document.currentScript:function(){for(var t=document.getElementsByTagName(&quot;script&quot;),e=t.length;e--;)if(t[e].getAttribute(&quot;cf-hash&quot;))return t[e]}();if(t&amp;&amp;t.previousSibling){var e,r,n,i,c=t.previousSibling,a=c.getAttribute(&quot;data-cfemail&quot;);if(a){for(e=&quot;&quot;,r=parseInt(a.substr(0,2),16),n=2;a.length-n;n+=2)i=parseInt(a.substr(n,2),16)^r,e+=String.fromCharCode(i);e=document.createTextNode(e),c.parentNode.replaceChild(e,c)}}}catch(u){}}();/* ]]&gt; */&lt;/script&gt;\nFormat settings, CABAC                   : Yes\nFormat settings, ReFrames                : 4 frames\nCodec ID                                 : avc1\nCodec ID/Info                            : Advanced Video Coding\nDuration                                 : 1h 42mn\nBit rate mode                            : Variable\nBit rate                                 : 850 Kbps\nWidth                                    : 1 280 pixels\nHeight                                   : 540 pixels\nDisplay aspect ratio                     : 2.40:1\nOriginal display aspect ratio            : 2.40:1\nFrame rate mode                          : Variable\nFrame rate                               : 24.000 fps\nMinimum frame rate                       : 23.810 fps\nMaximum frame rate                       : 24.390 fps\nColor space                              : YUV\nChroma subsampling                       : 4:2:0\nBit depth                                : 8 bits\nScan type                                : Progressive\nBits/(Pixel*Frame)                       : 0.051\nStream size                              : 624 MiB (89%)\nWriting library                          : x264 core 130 r2273 b3065e6\nEncoded date                             : UTC 2013-08-03 23:47:34\nTagged date                              : UTC 2013-08-04 00:51:29\nColor primaries                          : BT.709\nTransfer characteristics                 : BT.709\nMatrix coefficients                      : BT.709\n\nAudio\nID                                       : 2\nFormat                                   : AAC\nFormat/Info                              : Advanced Audio Codec\nFormat profile                           : LC\nCodec ID                                 : 40\nDuration                                 : 1h 42mn\nBit rate mode                            : Variable\nBit rate                                 : 96.0 Kbps\nMaximum bit rate                         : 150 Kbps\nChannel(s)                               : 2 channels\nChannel positions                        : Front: L R\nSampling rate                            : 48.0 KHz\nCompression mode                         : Lossy\nDelay relative to video                  : 83ms\nStream size                              : 70.5 MiB (10%)\nLanguage                                 : Spanish\nEncoded date                             : UTC 2013-08-03 23:47:34\nTagged date                              : UTC 2013-08-04 00:51:28\n\n","torrent":{"xt":"urn:btih:52c6e83219b831551e56d9d3cdf11d8edebda10f","amp;dn":"Los+Ultimos+Dias+2013+720p+BluRay+x264+SIMON","amp;tr":["udp%3A%2F%2Ftracker.openbittorrent.com%3A80","udp%3A%2F%2Fopen.demonii.com%3A1337","udp%3A%2F%2Ftracker.coppersurfer.tk%3A6969","udp%3A%2F%2Fexodus.desync.com%3A6969"],"infoHash":"52c6e83219b831551e56d9d3cdf11d8edebda10f","infoHashBuffer":{"type":"Buffer","data":[82,198,232,50,25,184,49,85,30,86,217,211,205,241,29,142,222,189,161,15]},"announce":[],"urlList":[]}}